# xmcd
#
# Track frame offsets: 
#        150
#        19333
#        40050
#        62303
#        81955
#        93828
#        116835
#        133673
#        153205
#        171060
#        185405
#        202205
#        218305
#
# Disc length: 3121 seconds
#
# Revision: 0
# Processed by: cddbd v1.5PL3 Copyright (c) Steve Scherf et al.
# Submitted via: ExactAudioCopy v0.95a3
#
DISCID=a60c2f0d
DTITLE=Catatonia - Equally Cursed And Blessed
DYEAR=1999
DGENRE=Alt. Rock
TTITLE0=Dead From The Waist Down
TTITLE1=Londinium
TTITLE2=Post Script
TTITLE3=She's A Millionaire
TTITLE4=Storm The Palace
TTITLE5=Karaoke Queen
TTITLE6=Bulimic Beats
TTITLE7=Valerian
TTITLE8=Shoot The Messenger
TTITLE9=Nothing Hurts
TTITLE10=Daze
TTITLE11=Mulder And Scully (Live In Newport)
TTITLE12=Nothing Hurts (Live)
EXTD=
EXTT0=
EXTT1=
EXTT2=
EXTT3=
EXTT4=
EXTT5=
EXTT6=
EXTT7=
EXTT8=
EXTT9=
EXTT10=
EXTT11=
EXTT12=
PLAYORDER=
